<?xml version="1.0" encoding="utf-8"?>
<!-- Generator: Adobe Illustrator 18.1.1, SVG Export Plug-In . SVG Version: 6.00 Build 0)  -->
<svg version="1.1" id="Laag_1" xmlns="http://www.w3.org/2000/svg" xmlns:xlink="http://www.w3.org/1999/xlink" x="0px" y="0px"
	 viewBox="31.2 246.6 519.9 78.8" enable-background="new 31.2 246.6 519.9 78.8" xml:space="preserve">
<g>
	<path fill="#FFFFFF" d="M62.9,315.2c-0.6-0.6-1.1-1.7-1.1-2.8c-1.7-1.7-3.4-5.7-4-8.5c-1.7-4.5-4-7.9-5.1-11.9
		c-2.3-4-2.3-5.1-2.8-5.7c-0.6-0.6-1.7-4-2.3-4s-0.6,0.6-1.1,2.8c-0.6,1.1-0.6,2.3-1.1,4c-1.1,1.1-1.1,3.4-2.3,5.1
		c-0.6,5.1-2.3,6.8-2.3,7.9c0,1.1-0.6,3.4-1.1,5.1c0,3.4-1.7,4-1.7,7.4c0,1.7-2.3,5.1-2.8,8.5l-0.6,0.6c-1.1,0-1.7,1.1-2.3,1.1
		c-1.1,0-1.1-0.6-1.1-2.8c0-2.3,1.7-9.1,2.3-11.9c0-1.7,1.1-3.4,1.1-6.8c0-1.7,0.6-2.3,1.7-7.9c1.1-7.9,2.3-10.8,2.3-13
		c1.1-6.2,0.6-10.2,2.3-15.3c0-0.6,0-1.7,0-3.4c1.1-6.2,1.7-6.2,6.2-6.2c1.1-1.1,1.1,0.6,2.3,0.6c1.1,0,2.8-4.5,4.5-4.5
		c1.1,0,2.3,1.1,2.3,2.3c-1.7,4.5-3.4,9.1-3.4,11.3c0,2.3,2.3,6.2,2.3,7.4c1.7,3.4,1.7,5.1,2.3,5.7c1.1,4.5,2.3,5.1,2.3,6.8
		c0,1.1,2.8,6.8,2.8,8.5c1.7,2.3,2.3,5.1,3.4,6.8c0,1.7,2.8,6.2,3.4,6.2c1.1,0,0.6-1.7,1.7-5.1c0.6-2.3,1.1-7.4,2.3-11.9
		c0-2.8,1.1-9.6,1.1-13.6c0-0.6,0.6-1.7,0.6-12.5c0-1.7,0.6-2.3,0.6-4c1.1-1.7,1.7-6.8,2.8-10.2c2.3-2.3,3.4-2.8,4-2.8
		c0.6,0,0.6,0.6,0.6,4c0,5.7-1.1,6.8-1.1,7.9c0,0.6,0,1.1,0,1.1c-0.6,1.1-0.6,6.8-1.1,13c0,0.6-0.6,1.1-0.6,1.7c0,0.6,0,1.1,0.6,1.7
		c-0.6,0.6-1.7,10.2-1.7,14.7c-1.1,1.7-2.3,13-3.4,17c0,2.3-0.6,3.4-2.3,6.2c-2.3,0.6-5.1,2.3-6.2,2.3
		C65.2,319.7,64.1,317.5,62.9,315.2z"/>
	<path fill="#FFFFFF" d="M103.2,264.2c-1.1,2.3-1.7,10.2-2.3,10.2c0,0.6-0.6,0.6-0.6,1.1c0,0.6,0,0.6,0,1.1
		c-1.1,2.3-1.7,11.3-2.3,11.9c0,4-1.1,5.1-1.1,11.9c-0.6,2.3-0.6,6.2-1.1,7.9c0,2.8,0.6,4.5,0.6,5.7c0.6,1.1,0.6,2.3,0.6,2.3
		c0,2.3-1.7,1.7-3.4,4c0,0-1.1,0-1.7,0c-1.1,0-2.3-1.1-2.3-4c0-1.7,0-2.3-0.6-3.4c0-1.1,0-2.3-0.6-3.4c0-2.8,0.6-3.4,0.6-6.8
		c0-0.6,0.6-1.1,0.6-1.1c-0.6-0.6-0.6-1.7-0.6-2.8c0-1.1,0.6-2.3,0.6-4c0-0.6,0-1.1,0-1.7c0.6-1.7,1.1-5.7,1.1-9.1
		c0.6-0.6,0.6-1.1,0.6-2.3c0-4-0.6-4.5-1.7-5.1c0-1.1,0-1.7,0-2.3c0-1.1,0-2.8,0.6-3.4l-0.6-1.1c0.6-0.6,1.1-2.3,1.1-4.5
		c1.7-2.8,1.7-6.8,4-11.3c1.1-0.6,3.4-1.7,5.1-1.7c1.7-1.1,2.3-1.7,3.4-1.7s1.7,2.3,1.7,2.8C104.9,255.7,103.2,260.8,103.2,264.2z"
		/>
	<path fill="#FFFFFF" d="M141.2,317.5c-5.1,2.3-7.4,4.5-14.2,4.5c-6.2,0-7.4-2.3-10.8-2.8c-5.7-2.8-8.5-7.4-9.6-13
		c-0.6-1.1-1.1-4-1.1-4.5c0-0.6,0-3.4,0-4c-0.6-0.6-0.6-1.1-0.6-2.3c0-1.7,2.3-13.6,3.4-15.3c0.6-3.4,2.3-4,2.8-6.8
		c3.4-4,5.1-7.9,7.9-9.6c0-1.1,1.7-2.8,4-3.4c4-4.5,5.7-4,6.8-5.1c0.6-1.1,6.2-2.8,9.1-2.8c4,0,4.5,0,6.2,1.1c2.3,0,4.5,2.8,4.5,5.1
		c0,2.3,1.1,2.8,1.1,5.7c0,0.6,0,1.7,0,2.8c0,0.6,0,1.7,0,2.3c-0.6,1.1-0.6,2.8-1.1,4.5c-0.6,1.7-0.6,3.4-0.6,4
		c0,1.1-1.1,1.7-1.7,6.2c-0.6,0.6-2.3,4.5-2.3,5.1c-1.1,2.8-4.5,3.4-6.2,3.4c-1.1,0-1.7-0.6-1.7-1.1s0-7.9,1.1-10.2
		c0-1.7,0.6-2.3,0.6-3.4c0-2.8,1.7-4.5,1.7-6.8c1.7-3.4,3.4-2.8,3.4-6.8c0-2.8-2.3-2.8-3.4-4c-1.1-0.6-2.3-1.1-3.4-1.1
		c-2.8,0-5.7,1.1-9.1,2.3c-2.3,2.8-3.4,2.3-5.1,4.5c-1.1,2.3-2.8,2.8-4.5,6.8c-4,8.5-2.8,9.1-4,12.5c-1.1,4-0.6,5.1-1.1,7.9
		c0.6,1.1,0.6,2.3,0.6,3.4c0,1.1-0.6,2.3-0.6,2.8c0,2.3,2.3,4,4,9.6c2.3,1.1,5.1,6.2,11.3,6.2c2.8,0,4-0.6,6.8-1.1
		c1.7-1.1,4.5-1.7,5.7-3.4c1.1,0,1.7-0.6,2.3-0.6c0.6-1.1,0.6-1.1,1.1-1.7c0.6,0,1.1,0.6,1.1,1.1
		C146.8,314.1,143.4,315.2,141.2,317.5z"/>
	<path fill="#FFFFFF" d="M175.2,290.8c0.6,2.3,5.7,13.6,6.8,13.6c3.4,5.1,4,5.7,6.2,5.7c2.3,0,5.1-2.8,7.4-4
		c0.6-0.6,1.7-1.7,2.8-1.7c0.6,0,1.1,0.6,1.1,1.7c0,1.7-1.1,3.4-4,4.5c-0.6,0.6-2.8,2.8-4,5.1c-4,2.3-4.5,2.8-6.8,2.8
		c-5.7,0-6.2-6.2-9.6-7.9c-1.1-2.3-2.3-3.4-3.4-5.7c-1.1-0.6-6.2-10.8-6.8-10.8c-1.1,0-1.7,8.5-2.3,9.6c0,4-1.1,10.2-1.1,11.9
		c0,0.6,0,1.1,0,1.1c0,1.1-1.7,1.1-2.3,1.1c-0.6,0-1.1-0.6-1.7-0.6c-0.6,0-1.1,0.6-1.7,0.6s-1.1-0.6-1.1-4c0.6-1.1,0.6-7.9,1.1-12.5
		c0-2.3,1.1-7.4,1.1-9.1c0-0.6,1.1-1.7,1.1-2.3c-0.6-0.6-0.6-1.7-0.6-6.2c0-1.1,0.6-3.4,0.6-5.1c0.6-1.1,1.1-8.5,1.7-12.5
		c0-2.8,0.6-7.4,1.1-7.9c1.7-1.7,4-3.4,4.5-3.4c1.7,0,1.7-1.7,2.8-1.7c0.6,0,2.8,2.3,2.8,4c0,1.7-1.1,3.4-1.1,5.1
		c0,1.7-2.3,7.9-2.3,9.6c-0.6,5.1-2.8,9.6-2.8,15.3c2.3,0,11.3-12.5,12.5-13s1.1-2.3,4-5.1c0.6-1.1,2.3-2.8,2.8-4
		c2.8-4,4.5-7.4,4.5-9.1c0-1.1-1.7-1.7-1.7-2.3c0-2.8,5.1-4,6.2-4.5c1.1-1.1,3.4-0.6,4.5-1.7c0.6,0,1.7,1.1,1.7,1.7
		c0,4-1.1,9.1-3.4,10.8c-4,7.9-7.9,10.8-8.5,11.3c0,1.1-2.3,2.3-6.2,7.9c-1.7,1.1-3.4,4-5.1,5.1c-0.6,0.6-2.3,2.3-2.3,3.4
		C174,289.1,175.2,290.3,175.2,290.8z"/>
	<path fill="#FFFFFF" d="M199.6,284.6c4-6.2,4.5-10.8,6.2-12.5c0-1.7,1.1-4.5,1.7-5.1c1.7-2.3,2.3-7.4,4.5-10.2c0.6-2.8,2.8-2.8,4-4
		c0.6,0,1.7,0.6,1.7,1.7c0,4-1.7,4-1.7,6.2c0,0.6,0,1.1,0.6,1.1s3.4-3.4,4-4c4-1.7,4-4.5,7.9-4.5c1.1,0,1.1-1.1,2.3-1.1
		c1.1,0,1.7,0.6,6.2,1.7c1.1,1.1,2.3,1.7,3.4,3.4c1.7,0.6,1.7,2.8,3.4,4c1.1,2.8,4.5,5.7,4.5,16.4c-1.1,5.7-0.6,9.6-5.1,18.1
		c-1.1,1.1-1.7,4-5.7,7.4c-0.6,2.3-4,4-5.7,6.8c-3.4,2.3-5.1,4-7.9,6.2c-5.1,1.1-5.7,3.4-11.3,3.4c-2.8-0.6-5.7-0.6-8.5-4.5
		c-2.8-4.5-2.3-6.8-3.4-11.9c0-1.1,0.6-2.3,0.6-2.3c0-4,0-6.2,1.1-7.9c0-3.4,0-3.4-0.6-3.4c-0.6,0-0.6,2.8-1.7,2.8s-1.7,0-1.7-1.1
		C198.4,289.1,199,286.3,199.6,284.6z M209.8,297.6c0,0.6,0.6,4.5,1.1,6.8c1.1,1.1,2.3,7.4,6.8,7.4c2.3-0.6,4.5-0.6,5.7-1.7
		c5.1-2.3,5.7-4.5,9.1-6.8c1.7-2.8,4.5-5.1,5.1-7.4c1.1-2.8,1.7-4.5,2.3-5.1c0-2.3,1.7-5.7,1.7-8.5c0-1.1-0.6-3.4-0.6-5.1
		c0-0.6,0-1.1,0-1.7c-1.7-1.7-0.6-4-5.1-8.5c-1.1-1.7-5.7-3.4-8.5-3.4c-2.3,0-6.8,2.3-8.5,2.8c-1.1,0.6-4.5,4-6.2,6.2
		c-1.1,7.4-2.8,9.6-2.8,21.5C209.8,295.4,209.8,296.5,209.8,297.6z"/>
	<path fill="#FFFFFF" d="M292.5,307.8c0-1.1,2.8-1.7,2.8-3.4c0-4-3.4-5.7-5.1-8.5c-2.3-1.7-3.4-4-4.5-4.5c-1.7-1.7-6.2-5.1-6.2-7.4
		c-3.4-3.4-4-6.2-4-10.8c0-4.5,3.4-6.8,4.5-10.2c3.4-4,5.7-4.5,9.6-8.5c1.7-0.6,4-3.4,5.7-3.4c1.7-0.6,7.4-3.4,9.6-3.4
		c2.3,1.1,2.8,1.1,2.8,4.5c0,0.6-0.6,4-1.1,4.5c-0.6,0-1.7,1.1-4,3.4c-4,3.4-7.4,4.5-9.6,5.7c-1.1,0-2.3-0.6-2.3-1.1
		c0-2.3,4-4,4-5.1c0,0,0-0.6-0.6-0.6c-1.1,0-9.6,6.2-9.6,12.5c0,1.7,1.1,2.8,1.7,4.5c0.6,1.7,4,4.5,5.7,7.9c1.1,1.7,4,3.4,5.1,5.7
		c4.5,5.1,5.7,7.4,5.7,12.5c1.7,0.6,1.7,0.6,1.7,2.8c0,1.1-3.4,2.3-5.1,4c-5.7,6.8-9.6,7.9-13,10.8c-2.8,1.1-4,2.8-8.5,2.8
		c-4-1.1-5.7-1.7-5.7-4.5c0-2.3,2.3-2.8,5.7-5.1c3.4-1.1,10.2-5.1,11.3-5.1c0.6,0,1.1,0.6,1.1,1.1c0,1.7-3.4,2.8-3.4,3.4
		c0,0.6,0,0.6,0.6,0.6c1.1,0,4.5-3.4,4.5-4v-1.1H292.5z"/>
	<path fill="#FFFFFF" d="M341.9,312.9c-1.1,1.7-4.5,3.4-5.7,3.4c-1.1,0.6-2.3,1.7-3.4,1.7c-3.4,1.7-6.2,2.8-7.4,2.8
		c-3.4,0-5.7,0.6-6.2,0.6c-1.1,0-1.7,0-2.3,0c-1.1,0.6-1.7,0.6-2.3,0.6c-0.6,0-2.8-0.6-2.8-1.7c0-0.6,0-1.1,0-1.7
		c-2.8,0-2.8-0.6-2.8-2.8c0-1.1,0.6-3.4,0.6-10.8c0-2.3,0.6-4.5,0.6-7.4c0.6-2.8,0.6-6.2,1.7-9.1c0-1.7,0-5.7,1.7-10.2
		c0-3.4,1.1-5.7,2.8-12.5c0.6-2.8,2.8-2.8,4-6.2c4-2.8,5.7-4.5,6.8-5.1c0.6-1.7,1.1-2.3,1.7-2.3c1.7-0.6,3.4-2.3,8.5-2.3
		c1.1-0.6,2.3-0.6,4-0.6c0.6,0,1.1,0.6,1.7,0.6s1.1,0,1.7,0c3.4,0.6,5.1,1.1,5.1,4c0,3.4-0.6,3.4-0.6,5.1c0,2.3-0.6,2.3-2.3,2.3
		c-1.1,0-1.7-0.6-2.3-0.6c-2.8-1.1-3.4-1.1-6.8-1.1c-0.6,0-1.1,0.6-4.5,0.6c-0.6,0-0.6,0.6-3.4,0.6c-3.4,0-3.4,4.5-5.1,6.2
		c0,0.6,0.6,1.1,0.6,1.7c-2.3,5.1-2.3,9.1-3.4,10.8c0,2.8-1.1,2.8-1.1,6.8c2.8,0,2.8-2.3,5.7-3.4c2.8-0.6,4-1.7,6.8-1.7
		c0.6,0,1.7,0,2.3,0s3.4-0.6,4.5-0.6c1.7,0,1.7,0.6,3.4,0.6c0.6,0.6,1.1,1.7,1.7,2.3c0,4-0.6,5.7-1.7,6.2c-1.7-0.6-3.4-0.6-5.1-0.6
		c-2.3,0.6-2.8,0.6-5.7,0.6c-0.6,0-1.1,0.6-1.1,0.6c-0.6,0-1.1,0-1.7,0c-4.5,1.7-10.8,1.1-10.8,6.2c-1.1,2.8-1.1,6.2-1.7,7.4
		c0,0.6,0,1.1,0,1.7c-1.1,2.8-1.1,5.1-1.1,7.4c1.1,0,1.7,0,2.8,0.6c0.6,0,1.7-0.6,2.8-0.6c1.1,0,1.7,0,2.8,0c1.1,0,2.8-0.6,4-0.6
		c1.1-0.6,5.1-1.1,6.8-1.7c1.7-0.6,3.4-1.7,5.7-2.3c1.1-1.7,2.3-1.1,3.4-1.7c1.1,0,1.1,1.1,1.1,1.7
		C345.3,310.1,343.6,311.8,341.9,312.9z"/>
	<path fill="#FFFFFF" d="M356,262.5c-0.6-1.1-0.6-1.1-0.6-2.8c0-2.8,1.7-5.7,4.5-6.8c2.3-2.3,4-2.3,6.8-2.3h3.4c1.7,0,4,1.1,4.5,1.1
		c4,0,5.7,1.7,6.2,1.7c1.7,1.1,2.8,1.1,4.5,2.3c2.3,0.6,2.8,2.3,5.7,3.4c1.1,2.3,5.1,3.4,5.1,10.2c0,4.5-1.7,5.7-2.8,6.2
		c-0.6,2.3-7.9,6.2-10.8,7.4c-4,2.8-6.2,3.4-10.2,5.1c-1.7,1.1-6.2,2.3-6.2,4c0,3.4,7.4,6.8,10.8,11.3c2.8,1.1,4.5,2.8,6.2,4.5
		c2.3,2.3,4,2.3,6.2,5.1c2.3,0,2.3,2.3,5.1,2.8c1.7,2.3,3.4,1.7,3.4,5.7c0,3.4,0,4-1.1,4c-2.8,0-2.8-1.7-5.1-2.8
		c-6.8-3.4-10.2-4.5-15.3-8.5c-1.7-1.1-2.3-1.7-5.1-2.8c-1.1-0.6-1.7-2.3-5.1-4c-1.1-1.7-4.5-3.4-5.1-3.4c-0.6,0-0.6,0.6-0.6,1.7
		c0,1.1-1.7,7.4-1.7,10.2c-1.1,2.3-0.6,5.7-2.3,5.7c-2.3,0-3.4-2.3-4-2.8c0-10.2,1.1-10.2,1.1-18.1c0-2.8-3.4-1.7-3.4-5.7
		c0-1.7,0-1.7,0.6-2.3c2.3-1.1,3.4-2.3,4-2.8s0.6-10.8,0.6-12.5c0-2.3-0.6-2.8-0.6-5.7v-9.1H356z M366.2,275
		c-0.6,0.6-0.6,1.7-0.6,2.8c-0.6,1.1-1.7,7.4-1.7,7.9s0.6,0.6,0.6,0.6c1.1,0,10.2-5.7,11.9-5.7c1.7-1.7,10.8-6.2,10.8-10.2
		c0-2.3-5.1-6.2-6.8-6.8c-1.1-0.6-3.4-1.7-5.1-1.7c-2.3-1.1-6.2-1.1-9.6-1.7c-3.4,0.6-5.7,0.6-5.7,4c0,1.1,0,3.4,1.1,3.4
		c0.6-1.1,2.8-2.3,3.4-2.3c1.1,0,2.3,2.3,2.3,3.4C367.4,271,366.2,272.1,366.2,275z"/>
	<path fill="#FFFFFF" d="M413.9,272.1c0,1.1,0,2.3,0,4c0,4.5,1.1,10.2,1.7,15.3c0.6,0,0.6,1.1,0.6,4.5c0,0.6,0.6,0.6,1.1,2.3
		c0.6,4,1.7,6.8,2.3,6.8c1.1,0,2.3-4,3.4-4.5c1.1-3.4,2.8-6.2,4-7.4c0.6-2.3,2.8-8.5,4.5-10.2c0.6-2.8,2.8-6.2,3.4-10.2
		c1.1-11.3,1.7-11.3,5.7-12.5c0.6,0,1.1-1.1,2.3-1.1c0.6,0,1.1,0.6,1.1,1.7c0,3.4-0.6,10.8-2.3,11.9c0,4.5-2.3,7.4-2.3,7.9
		c0,1.7-0.6,2.3-1.1,3.4c0,1.1-2.3,5.1-2.3,6.2c0,1.1-4,8.5-4,9.1c-4,9.6-5.7,10.8-5.7,11.3s0.6,1.7,0.6,2.3c0,1.7-2.8,2.3-4,5.1
		c-2.8,1.7-3.4,4-6.2,4c-3.4,0-4-1.7-4-3.4c0-1.1,2.3-2.8,2.3-3.4c0-0.6-1.7-2.8-3.4-9.6c-0.6,0-1.7-5.1-1.7-7.9
		c0-0.6-1.1-1.1-1.1-5.1c-0.6-1.1-0.6-3.4-0.6-5.1c-1.1,0-1.1-7.4-1.1-12.5c-1.1,0-1.1-1.1-1.1-9.6c-0.6-1.1-0.6-2.3-0.6-6.2
		c0-2.8,1.1-6.2,1.7-6.8c1.1-1.1,1.1-2.8,1.7-2.8c0-1.1,1.7-2.8,3.4-2.8c1.7,0,1.7,0.6,1.7,2.8c0,1.1,0.6,2.3,0.6,3.4
		c0,3.4-0.6,9.6-1.1,10.2L413.9,272.1z"/>
	<path fill="#FFFFFF" d="M459.2,264.2c-1.1,2.3-1.7,10.2-2.3,10.2c0,0.6-0.6,0.6-0.6,1.1c0,0.6,0,0.6,0,1.1
		c-1.1,2.3-1.7,11.3-2.3,11.9c0,4-1.1,5.1-1.1,11.9c-0.6,2.3-0.6,6.2-1.1,7.9c0,2.8,0.6,4.5,0.6,5.7c1.1,0.6,1.1,1.7,1.1,2.3
		c0,2.3-1.7,1.7-3.4,4c-0.6,0-1.1,0-2.3,0c-1.1,0-2.3-1.1-2.3-4c0-1.7,0-2.3-0.6-3.4c0-1.1,0-2.3-0.6-3.4c0-2.8,0.6-3.4,0.6-6.8
		c0-0.6,0.6-1.1,0.6-1.1c-0.6-0.6-0.6-1.7-0.6-2.8c0-1.1,0.6-2.3,0.6-4c0-0.6,0-1.1,0-1.7c0.6-1.7,1.1-5.7,1.1-9.1
		c0.6-0.6,0.6-1.1,0.6-2.3c0-4-0.6-4.5-1.7-5.1c0-1.1,0-1.7,0-2.3c0-1.1,0-2.8,0.6-3.4l-0.6-1.1c0.6-0.6,0.6-2.3,1.1-4
		c1.7-2.8,1.7-6.8,4-11.3c1.1-1.1,4-2.3,5.1-2.3c1.7-1.1,2.3-1.7,3.4-1.7c1.1,0,1.7,2.3,1.7,2.8
		C460.9,255.7,459.2,260.8,459.2,264.2z"/>
	<path fill="#FFFFFF" d="M497.8,317.5c-5.1,2.3-7.4,4.5-14.2,4.5c-6.2,0-7.4-2.3-10.8-2.8c-5.7-2.8-8.5-7.4-9.6-13
		c-0.6-1.1-1.1-4-1.1-4.5c0-0.6,0-3.4,0-4c-0.6-0.6-0.6-1.1-0.6-2.3c0-1.7,2.3-13.6,3.4-15.3c0.6-3.4,2.3-4,2.8-6.8
		c3.4-4,5.1-7.9,7.9-9.6c0-1.1,1.7-2.8,4-3.4c4-4.5,5.7-4,6.8-5.1c0.6-1.1,6.2-2.8,9.1-2.8c4,0,4.5,0,6.2,1.1c2.3,0,4.5,2.8,4.5,5.1
		c0,2.3,1.1,2.8,1.1,5.7c0,0.6,0,1.7,0,2.8c0,0.6,0,1.7,0,2.3c-0.6,1.1-0.6,2.8-1.1,4.5c-0.6,1.7-0.6,3.4-0.6,4
		c0,1.1-1.1,1.7-1.7,6.2c-0.6,0.6-2.3,4.5-2.3,5.1c-1.1,2.8-4.5,3.4-6.2,3.4c-1.1,0-1.7-0.6-1.7-1.1s0-7.9,1.1-10.2
		c0-1.7,0.6-2.3,0.6-3.4c0-2.8,1.7-4.5,1.7-6.8c1.7-3.4,3.4-2.8,3.4-6.8c0-2.8-2.3-2.8-3.4-4c-1.1-0.6-2.3-1.1-3.4-1.1
		c-2.8,0-5.7,1.1-8.5,2.3c-2.3,2.8-3.4,2.3-5.1,4.5c-1.1,2.3-2.8,2.8-4.5,6.8c-4,8.5-2.8,9.1-4,12.5c-1.1,4-0.6,5.1-1.1,7.9
		c0.6,1.1,0.6,2.3,0.6,3.4c0,1.1-0.6,2.3-0.6,2.8c0,2.3,2.3,4,4,9.6c2.3,1.1,5.1,6.2,11.3,6.2c2.8,0,4-0.6,6.8-1.1
		c1.7-1.1,4.5-1.7,5.7-3.4c1.1,0,1.7-0.6,2.3-0.6c0.6-1.1,0.6-1.1,1.1-1.7c0.6,0,1.1,0.6,1.1,1.1
		C503.4,314.1,499.5,315.2,497.8,317.5z"/>
	<path fill="#FFFFFF" d="M543.1,312.9c-1.1,1.7-4.5,3.4-5.7,3.4c-1.1,0.6-2.3,1.7-3.4,1.7c-3.4,1.7-6.2,2.8-7.4,2.8
		c-3.4,0-5.7,0.6-6.2,0.6c-1.1,0-1.7,0-2.3,0c-1.1,0.6-1.7,0.6-2.3,0.6c-0.6,0-2.8-0.6-2.8-1.7c0-0.6,0-1.1,0-1.7
		c-2.8,0-2.8-0.6-2.8-2.8c0-1.1,0.6-3.4,0.6-10.8c0-2.3,0.6-4.5,0.6-7.4c0.6-2.8,0.6-6.2,1.7-9.1c0-1.7,0-5.7,1.7-10.2
		c0-3.4,1.1-5.7,2.8-12.5c0.6-2.8,2.8-2.8,4-6.2c4-2.8,5.7-4.5,6.8-5.1c1.1-1.7,1.7-2.3,1.7-2.3c1.7-0.6,3.4-2.3,8.5-2.3
		c1.1-0.6,2.3-0.6,4-0.6c0.6,0,1.1,0.6,1.7,0.6c0.6,0,1.1,0,1.7,0c3.4,0.6,5.1,1.1,5.1,4c0,3.4-0.6,3.4-0.6,5.1
		c0,2.3-0.6,2.3-2.3,2.3c-1.1,0-1.7-0.6-2.3-0.6c-2.8-1.1-3.4-1.1-6.8-1.1c-0.6,0-1.1,0.6-4.5,0.6c-0.6,0-0.6,0.6-3.4,0.6
		c-3.4,0-3.4,4.5-5.1,6.2c0,0.6,0.6,1.1,0.6,1.7c-2.3,5.1-2.3,9.1-3.4,10.8c0,2.8-1.1,2.8-1.1,6.8c2.8,0,2.8-2.3,5.7-3.4
		c2.8-0.6,4-1.7,6.8-1.7c0.6,0,1.7,0,2.3,0c0.6,0,3.4-0.6,4.5-0.6c1.7,0,1.7,0.6,3.4,0.6c0.6,0.6,1.1,1.7,1.7,2.3
		c0,4-0.6,5.7-1.7,6.2c-1.7-0.6-3.4-0.6-5.1-0.6c-2.3,0.6-2.8,0.6-5.7,0.6c-0.6,0-1.1,0.6-1.1,0.6c-0.6,0-1.1,0-1.7,0
		c-4.5,1.7-10.8,1.1-10.8,6.2c-1.1,2.8-1.1,6.2-1.7,7.4c0,0.6,0,1.1,0,1.7c-1.1,2.8-1.1,5.1-1.1,7.4c1.1,0,1.7,0,2.8,0.6
		c0.6,0,1.7-0.6,2.8-0.6s1.7,0,2.8,0s2.8-0.6,4-0.6c1.1-0.6,5.1-1.1,6.8-1.7c1.7-0.6,3.4-1.7,5.7-2.3c1.1-1.7,2.3-1.1,3.4-1.7
		c1.1,0,1.1,1.1,1.1,1.7C547.1,310.1,545.4,311.8,543.1,312.9z"/>
</g>
</svg>
